<svg t="1593853678479" class="icon" viewBox="0 0 1024 1024" version="1.1"
                        xmlns="http://www.w3.org/2000/svg" p-id="6719" width="200" height="200">
                        <path
                            d="M853.333333 85.333333H384a85.333333 85.333333 0 0 0-85.333333 85.333334v554.666666a42.666667 42.666667 0 0 0 85.333333 0V170.666667h469.333333v341.333333a42.666667 42.666667 0 0 0 85.333334 0V170.666667a85.333333 85.333333 0 0 0-85.333334-85.333334z"
                            fill="#ffd600" p-id="6720"></path>
                        <path
                            d="M896 661.333333a42.666667 42.666667 0 0 0-42.666667 42.666667v149.333333H170.666667V256a42.666667 42.666667 0 0 0-85.333334 0v597.333333a85.333333 85.333333 0 0 0 85.333334 85.333334h682.666666a85.333333 85.333333 0 0 0 85.333334-85.333334v-149.333333a42.666667 42.666667 0 0 0-42.666667-42.666667zM469.333333 384h298.666667a42.666667 42.666667 0 0 0 0-85.333333H469.333333a42.666667 42.666667 0 0 0 0 85.333333z"
                            fill="#ffd600" p-id="6721"></path>
                        <path
                            d="M469.333333 640h256a42.666667 42.666667 0 0 0 0-85.333333H469.333333a42.666667 42.666667 0 0 0 0 85.333333z"
                            fill="#ffd600" p-id="6722"></path>
                    </svg>
