<svg t="1593853769105" class="icon" viewBox="0 0 1024 1024" version="1.1"
                        xmlns="http://www.w3.org/2000/svg" p-id="9937" width="200" height="200">
                        <path
                            d="M870.4 12.8H153.6A140.9024 140.9024 0 0 0 12.8 153.6v716.8A140.9024 140.9024 0 0 0 153.6 1011.2h504.32a38.4 38.4 0 0 0 0-76.8H153.6c-35.2768 0-64-28.7232-64-64V153.6c0-35.2768 28.7232-64 64-64h716.8c35.2768 0 64 28.7232 64 64v716.8c0 35.2768-28.7232 64-64 64h-11.4688a38.4 38.4 0 0 0 0 76.8H870.4A140.9024 140.9024 0 0 0 1011.2 870.4V153.6A140.9024 140.9024 0 0 0 870.4 12.8z"
                            fill="#00c853" p-id="9938"></path>
                        <path
                            d="M830.1568 380.3136a38.4 38.4 0 0 0-54.3232 0l-182.5792 182.5792-210.3296-210.2784-208.9472 217.4976a38.4512 38.4512 0 0 0 55.3984 53.248L384.0512 462.336l181.4016 181.4016c7.4752 7.4752 17.3056 11.264 27.136 11.264l0.6656-0.1024 0.6656 0.1024a38.0928 38.0928 0 0 0 27.136-11.264l209.1008-209.1008a38.4 38.4 0 0 0 0-54.3232z"
                            fill="#00c853" p-id="9939"></path>
                    </svg>
