<svg viewBox="0 0 1024 1024" version="1.1" xmlns="http://www.w3.org/2000/svg" xmlns:xlink="http://www.w3.org/1999/xlink" width="128" height="128">
    <defs>
        <filter id="dropShadow" x="-50%" y="-50%" width="200%" height="200%">
            <feGaussianBlur in="SourceAlpha" stdDeviation="80" result="blur"></feGaussianBlur>
            <feOffset in="blur" dx="30" dy="30" result="offsetBlur"></feOffset>
            <feFlood flood-color="rgba(51, 136, 255, .255)" result="color"></feFlood>
            <feComposite in2="offsetBlur" operator="in" result="shadow"></feComposite>
            <feMerge>
                <feMergeNode in="shadow"></feMergeNode>
                <feMergeNode in="SourceGraphic"></feMergeNode>
            </feMerge>
        </filter>
    </defs>
    <!-- Apply shadow filter to SVG path -->
    <path filter="url(#dropShadow)"
        d="M217.525734 531.73446c99.964736-21.048385 86.319971-138.238434 83.388199-163.851788-4.922103-39.497573-52.297087-108.467387-116.594485-102.95586-80.938404 7.059789-92.750427 121.633245-92.750427 121.633245C80.604294 439.604156 117.726773 552.831964 217.525734 531.73446zM641.065006 344.444866c73.837682 9.471722 121.181967-67.737754 130.659829-126.251426 9.67536-58.430784-38.055734-126.394688-90.226954-138.062426-52.41272-11.800767-117.829616 70.406536-123.725906 124.034944C550.598598 269.77012 567.288722 335.168596 641.065006 344.444866zM403.151431 335.270926c55.187927 0 99.786681-62.310138 99.786681-139.28323 0-76.984349-44.598754-139.201365-99.786681-139.201365-55.208393 0-99.92278 62.217017-99.92278 139.201365C303.228651 272.960789 347.943039 335.270926 403.151431 335.270926zM933.578106 442.733427c0-27.984355-23.636327-112.337531-111.693872-112.337531-88.216157 0-99.902314 79.611176-99.902314 135.857201 0 53.689806 4.586458 128.550795 114.115014 126.230959C945.568185 590.102822 933.578106 470.91221 933.578106 442.733427zM821.884234 688.390359c0 0-114.176412-86.536912-180.819229-180.13566-90.466408-138.001027-218.885196-81.786725-261.821077-11.719926-42.798758 70.252017-109.316731 114.612341-118.835526 126.396735-9.613962 11.533684-137.916093 79.476099-109.452831 203.501834C179.481256 950.386422 279.540136 948.057377 279.540136 948.057377s73.733305 7.037277 159.247934-11.678994c85.691661-18.685571 159.435199 4.596691 159.435199 4.596691s199.900819 65.697281 254.531044-60.697407C907.462309 753.99452 821.884234 688.390359 821.884234 688.390359zM521.591961 876.474039 391.659703 876.474039c-56.153928-10.987239-78.522378-48.536436-81.320097-54.980195-2.772136-6.453992-18.679431-36.696784-10.227945-87.995123 24.221658-76.861552 93.424786-82.492806 93.424786-82.492806l69.243037 0 0-83.268472 58.812477 0.901533L521.591961 876.474039zM763.715417 875.610368 614.197078 875.610368c-58.042951-14.678304-60.750619-55.04057-60.750619-55.04057L553.446459 658.477073l60.750619-0.950651 0 145.650241c3.691065 15.530718 23.3805 18.319228 23.3805 18.319228l61.606103 0L699.183681 658.477073l64.532759 0L763.71644 875.610368zM365.574604 735.398999c-2.883677 8.273431-9.471722 29.314653-3.740184 47.562249 11.098779 41.126676 47.563272 43.002396 47.563272 43.002396l52.336996 0L461.734688 700.578959l-56.028061 0C380.462686 707.946764 368.219851 727.106126 365.574604 735.398999z"
        fill="#3388FF"></path>
</svg>
