<svg t="1702275506060" class="icon" viewBox="0 0 1035 1024" version="1.1"
                        xmlns="http://www.w3.org/2000/svg" p-id="4538" width="200" height="200">
                        <path
                            d="M95.064352 495.080629a484.865159 450.892003 90 1 0 901.784006 0 484.865159 450.892003 90 1 0-901.784006 0Z"
                            fill="#8651ED" p-id="4539"></path>
                        <path
                            d="M180.047649 511.983198a484.865159 406.266531 90 1 0 812.533062 0 484.865159 406.266531 90 1 0-812.533062 0Z"
                            fill="#9146FF" p-id="4540"></path>
                        <path
                            d="M236.669576 518.905523a484.865159 362.548354 90 1 0 725.096709 0 484.865159 362.548354 90 1 0-725.096709 0Z"
                            fill="#8651ED" p-id="4541"></path>
                        <path
                            d="M512.016802 1024C229.747252 1024 0 794.286352 0 511.983198S229.680045 0 512.016802 0s511.983198 229.780855 511.983198 512.050405-229.680045 511.949595-511.983198 511.949595z m0-969.763922c-252.396023 0-457.74712 205.351098-457.747121 457.74712s205.351098 457.74712 457.747121 457.747121 457.679913-205.351098 457.679913-457.679914-205.283891-457.814327-457.679913-457.814327z"
                            fill="#2E3138" p-id="4542"></path>
                        <path
                            d="M617.498244 961.564664h387.14613a30.780822 30.780822 0 0 1 30.780822 30.780822 30.780822 30.780822 0 0 1-30.780822 30.780823h-446.926788v-40.626654M766.697864 593.370919a114.251961 114.251961 0 1 1 114.25196-114.251961 114.487185 114.487185 0 0 1-114.25196 114.251961z m0-174.435862a60.08309 60.08309 0 1 0 60.08309 60.08309 60.150297 60.150297 0 0 0-60.08309-60.08309zM525.458209 351.963246a114.251961 114.251961 0 1 1 114.251961-114.251961 114.487185 114.487185 0 0 1-114.251961 114.251961z m0-174.435861a60.08309 60.08309 0 1 0 60.08309 60.08309 60.183901 60.183901 0 0 0-60.08309-60.08309zM290.536015 593.370919a114.251961 114.251961 0 1 1 114.251961-114.251961 114.487185 114.487185 0 0 1-114.251961 114.251961z m0-174.435862a60.08309 60.08309 0 1 0 60.116694 60.08309 60.150297 60.150297 0 0 0-60.116694-60.08309zM532.111705 825.302399a114.251961 114.251961 0 1 1 114.251961-114.251961 114.487185 114.487185 0 0 1-114.251961 114.251961z m0-174.469465a60.116693 60.116693 0 1 0 60.08309 60.116694 60.183901 60.183901 0 0 0-60.08309-60.116694z"
                            fill="#2E3138" p-id="4543"></path>
                    </svg>
