<svg t="1622968535563" class="icon" viewBox="0 0 1024 1024" version="1.1"
                        xmlns="http://www.w3.org/2000/svg" p-id="2898" width="200" height="200">
                        <path
                            d="M454.988214 346.085482v484.001641h-69.777134v-175.190134c-12.866854 8.911592-26.108234 15.467527-39.717137 19.674807-13.608904 4.203779-29.076431 6.307419-46.395581 6.307419-22.765512 0-44.046925-4.578304-63.840739-13.734912-19.793814-9.153108-36.74544-21.648938-50.851377-37.48749-14.105937-15.838552-24.99166-34.022259-32.660669-54.561623-7.669009-20.539364-11.508764-41.694769-11.508764-63.469715 0-22.765512 3.587738-44.662966 10.763214-65.699363 7.175476-21.032897 17.693675-39.591129 31.547595-55.674697 13.85742-16.083568 30.683038-28.827914 50.480353-38.229539 19.793814-9.405125 41.817277-14.105937 66.066887-14.105936 17.816183 0 33.406218 2.597172 46.766605 7.795017 13.363887 5.197845 26.479258 12.992863 39.346113 23.385053v-23.014028h69.777134zM512 0C229.230222 0 0 229.230222 0 512s229.230222 512 512 512 512-229.230222 512-512S794.769778 0 512 0z m264.862589 667.889852c-21.774946 9.156608-45.033991 13.734912-69.780634 13.734912-34.144767 0-62.356641-8.908092-84.62512-26.724275v18.558233h-69.780634V193.909377h69.780634v164.055894c28.208373-16.332085 56.416746-24.498127 84.62512-24.498127 25.733709 0 49.489786 4.207279 71.264732 12.618338 21.774946 8.414559 40.581695 20.290847 56.416747 35.632366 15.838552 15.341519 27.959857 33.528727 36.374415 54.561624 8.411059 21.032897 12.618338 44.169433 12.618338 69.406109 0 23.756078-4.329788 46.395581-12.992863 67.92551-8.659575 21.526429-21.032897 40.333178-37.116465 56.416747s-35.012825 28.705406-56.787771 37.858514z"
                            fill="#1296db" p-id="2899"></path>
                        <path
                            d="M385.21108 568.787771v-105.413c0-7.917526-2.600673-15.341519-7.795017-22.268479-5.197845-6.93046-12.002297-12.992863-20.413356-18.187208-8.414559-5.197845-17.200142-9.279116-26.35675-12.247313-9.153108-2.968197-17.938691-4.452296-26.35325-4.452295-26.227242 0-47.631163 10.266182-64.211764 30.805545-16.577101 20.539364-24.869151 45.159999-24.869152 73.861905 0 11.876289 2.226148 24.004594 6.681944 36.374416 4.452296 12.369821 10.885723 23.878586 19.300282 34.519292 8.411059 10.637206 17.938691 19.051765 28.579398 25.240176 10.640707 6.184911 21.897454 9.279116 33.777243 9.279116 7.423993 0 15.838552-1.36159 25.240176-4.081271 9.405125-2.723181 18.435724-6.433427 27.095299-11.134239 8.659575-4.704312 15.712543-9.898657 21.155405-15.590036 5.442861-5.691378 8.166042-11.260248 8.166042-16.703109zM622.456835 439.622194v124.713281c0 6.555935 2.845689 12.618338 8.537067 18.0647 5.691378 5.56887 12.989363 10.39219 21.897454 14.350953 8.908092 4.081271 18.187208 7.297985 27.837349 9.898657 9.650141 2.474664 18.435724 3.710246 26.35325 3.710247 12.866854 0 25.362684-2.723181 37.490989-8.166043 12.124805-5.56887 23.010528-13.111871 32.660669-22.888019 9.650141-9.650141 17.196642-20.910389 22.643004-33.651235 5.442861-12.618338 8.166042-25.982225 8.166042-39.962154 0-13.731412-2.723181-26.724275-8.166042-39.094096-5.442861-12.247313-12.989363-23.010528-22.643004-32.415653-9.650141-9.279116-20.539364-16.577101-32.660669-21.652437-12.124805-5.197845-24.620635-7.795018-37.490989-7.795018-7.917526 0-16.703109 0.742049-26.35325 2.226148-9.650141 1.36159-18.929257 3.46523-27.837349 6.184911-8.908092 2.600673-16.209576 6.188411-21.897454 10.889223-5.691378 4.578304-8.537067 9.772649-8.537067 15.590035z"
                            fill="#1296db" p-id="2900"></path>
                    </svg>
