<?xml version="1.0" standalone="no"?><!DOCTYPE svg PUBLIC "-//W3C//DTD SVG 1.1//EN" "http://www.w3.org/Graphics/SVG/1.1/DTD/svg11.dtd"><svg t="1733712724815" class="icon" viewBox="0 0 1024 1024" version="1.1" xmlns="http://www.w3.org/2000/svg" p-id="4417" xmlns:xlink="http://www.w3.org/1999/xlink" width="200" height="200"><path d="M468.053333 13.226667c-3.413333 2.133333-12.8 3.84-20.906666 3.413333-7.68 0-19.626667 0.853333-26.88 2.133333-6.826667 1.706667-17.066667 2.986667-22.186667 2.986667-5.546667-0.426667-9.813333 1.28-9.813333 3.413333s-4.266667 2.986667-9.386667 1.28c-6.826667-1.706667-8.106667-0.853333-5.546667 3.413334 2.56 4.266667 1.706667 5.12-3.413333 2.986666-3.84-1.28-8.106667-0.853333-9.386667 1.706667-1.706667 2.133333-4.266667 2.986667-6.4 1.706667-2.133333-1.28-4.693333-0.426667-6.4 1.706666-1.28 2.56-5.12 3.413333-8.533333 1.706667-3.413333-1.28-6.4 0-6.4 2.986667 0 2.56-1.706667 3.413333-4.266667 2.133333-2.133333-1.28-4.266667-0.853333-4.266666 1.706667 0 2.56-2.986667 3.413333-6.4 2.133333-3.413333-1.706667-6.4-0.426667-6.4 2.56 0 2.56-1.706667 3.413333-4.266667 2.133333-2.133333-1.28-4.266667-0.426667-4.266667 2.133334s-1.706667 3.413333-4.266666 2.133333c-2.133333-1.28-4.266667-0.426667-4.266667 2.133333s-1.706667 3.413333-4.266667 2.133334c-2.133333-1.28-4.266667-0.426667-4.266666 2.133333s-1.706667 3.413333-4.266667 2.133333c-2.133333-1.28-4.266667-0.426667-4.266667 2.133334s-1.706667 3.413333-4.266666 2.133333c-2.133333-1.28-4.266667-0.426667-4.266667 2.133333s-2.133333 3.413333-4.266667 2.133334c-2.133333-1.28-4.266667-0.426667-4.266666 2.56s-1.28 3.84-2.986667 2.56c-1.28-1.706667-5.12 0.426667-8.533333 4.693333-4.266667 4.693333-5.12 5.12-3.413334 0.853333 1.706667-3.413333-1.28-1.706667-6.4 4.266667s-7.68 7.68-5.973333 4.266667c2.133333-4.266667-1.706667-2.986667-11.52 2.986666-7.68 5.12-14.506667 11.946667-14.506667 14.933334 0 2.986667-3.413333 5.12-6.826666 4.266666-3.84-0.426667-9.813333 2.133333-12.8 6.4-5.12 5.973333-5.12 6.826667 0 3.413334 4.266667-2.133333 5.12-1.706667 2.986666 1.706666-1.706667 2.56-5.12 3.84-7.253333 2.56-5.546667-3.84-51.2 40.96-78.506667 76.373334C3.413333 339.626667-26.453333 514.986667 25.6 673.706667c43.093333 131.84 133.12 235.093333 258.133333 295.253333 78.933333 37.973333 163.413333 54.186667 251.733334 48.64 46.933333-3.413333 118.613333-17.066667 120.746666-23.466667 0.853333-2.133333 4.266667-2.56 7.68-1.28s5.973333 0 5.973334-2.56 2.986667-3.413333 6.4-2.133333c3.413333 1.706667 6.4 0.426667 6.4-2.133333s2.56-3.413333 5.973333-2.133334c2.986667 1.28 8.533333-0.853333 12.373333-4.266666 3.413333-3.413333 7.253333-5.12 8.96-3.84 1.28 1.706667 2.56 0.426667 2.56-2.56s2.133333-3.84 4.266667-2.56c2.56 1.28 4.266667 0.426667 4.266667-2.133334s2.133333-3.413333 4.266666-2.133333c2.56 1.28 4.266667 0.853333 4.266667-1.706667 0-2.56 2.986667-3.413333 6.4-2.133333 3.413333 1.706667 7.253333-0.426667 8.96-4.266667 1.28-3.84 4.266667-5.546667 6.4-4.266666 2.133333 1.28 3.84 0 3.84-2.56s2.133333-3.413333 4.266667-2.133334c2.56 1.28 4.266667 0.853333 4.266666-1.706666 0-2.56 4.266667-6.4 8.96-9.386667 7.253333-3.84 8.533333-3.413333 5.973334 1.28-1.706667 2.986667 1.28 0.853333 5.973333-5.12 4.693333-5.973333 8.96-8.96 8.96-6.826667 0 1.706667 3.413333-0.853333 7.68-5.546666 3.84-5.12 11.093333-9.813333 15.786667-10.666667 4.693333-0.853333 8.533333-3.413333 8.533333-5.973333 0-5.546667 17.066667-18.773333 20.053333-15.786667 0.853333 1.28 11.093333-7.68 22.613334-19.2 11.52-11.946667 19.626667-21.333333 17.92-21.333333-2.133333 0 5.12-11.093333 15.36-24.32 47.786667-62.293333 77.226667-123.306667 96-197.546667 9.813333-39.253333 11.093333-53.333333 11.093333-115.2s-1.28-75.946667-11.093333-115.626667C954.026667 222.72 829.013333 88.746667 661.333333 36.266667c-56.32-17.493333-177.066667-32-193.28-23.04z m148.48 61.013333c200.106667 51.626667 343.466667 234.666667 343.466667 439.466667 0 207.36-138.24 388.693333-336.64 440.746666-32.426667 8.533333-53.333333 11.093333-100.693333 12.373334-32.853333 0.426667-69.973333-0.853333-82.773334-2.986667-12.373333-2.56-23.466667-3.413333-24.746666-2.56-0.853333 1.28 8.106667 4.266667 20.906666 6.4 12.373333 2.133333 17.493333 4.266667 11.52 4.693333-17.92 0.853333-80.213333-16.64-119.04-33.28-53.333333-23.04-131.84-76.373333-125.866666-85.333333 0.853333-1.706667-5.973333-10.666667-15.786667-20.053333-9.386667-8.96-16.213333-13.653333-14.506667-10.24 8.96 18.346667-40.96-42.666667-58.026666-71.253334-72.106667-121.173333-86.613333-265.813333-39.68-396.8C98.133333 289.706667 128.853333 241.066667 177.92 190.72c29.013333-29.44 71.253333-65.28 55.04-46.506667-11.946667 13.653333-7.253333 11.946667 25.6-10.24 52.053333-35.413333 114.773333-59.733333 179.2-69.973333 44.373333-6.826667 130.986667-1.706667 178.773333 10.24zM827.733333 172.8c8.106667 8.106667 13.653333 14.933333 12.373334 14.933333-1.28 0-8.533333-6.826667-16.64-14.933333s-13.653333-14.933333-12.373334-14.933333c1.28 0 8.533333 6.826667 16.64 14.933333z m32.426667 32.853333l12.373333 14.08-13.653333-12.373333c-13.226667-11.946667-16.213333-15.36-12.8-15.36 0.853333 0 6.826667 6.4 14.08 13.653333zM119.893333 822.186667c5.546667 6.826667 5.12 7.253333-1.28 1.706666-4.266667-2.986667-7.68-6.4-7.68-7.253333 0-3.413333 3.413333-1.28 8.96 5.546667z m78.506667 30.293333c-2.986667 2.986667-23.466667-16.64-23.466667-22.186667 0-2.133333 5.546667 1.28 12.8 8.106667 6.826667 6.826667 11.946667 13.226667 10.666667 14.08z m-55.04-2.56l12.373333 14.08-13.653333-12.373333c-13.226667-11.946667-16.213333-15.36-12.8-15.36 0.853333 0 6.826667 6.4 14.08 13.653333z m722.773333 18.346667c-10.24 10.666667-19.626667 19.2-20.906666 19.2-1.28 0 6.4-8.533333 16.64-19.2s19.626667-19.2 20.906666-19.2c1.28 0-6.4 8.533333-16.64 19.2z m-686.933333 17.066666c5.546667 5.973333 8.96 10.666667 7.68 10.666667-0.853333 0-6.4-4.693333-11.946667-10.666667-5.546667-5.973333-8.96-10.666667-7.68-10.666666 0.853333 0 6.4 4.693333 11.946667 10.666666z m26.026667 22.186667c5.546667 6.826667 5.12 7.253333-1.28 1.706667-4.266667-2.986667-7.68-6.4-7.68-7.253334 0-3.413333 3.413333-1.28 8.96 5.546667z m345.173333 66.986667c5.973333 0.853333-10.666667 1.706667-37.12 2.133333-26.026667 0-48.64-0.853333-49.493333-2.986667-2.133333-2.56 62.293333-2.133333 86.613333 0.853334z m35.413333-2.986667c-2.986667 0.853333-8.106667 0.853333-10.666666 0-2.986667-1.28-0.853333-2.133333 5.12-2.133333s8.106667 0.853333 5.546666 2.133333z" p-id="4418"></path><path d="M514.133333 122.026667c-33.706667 19.2-41.386667 22.186667-48.213333 19.626666-4.693333-1.706667-4.693333-2.56 0-5.973333 3.413333-2.133333-5.12-2.986667-22.186667-1.706667-61.866667 4.266667-80.64 10.666667-97.706666 34.56-3.413333 4.693333-12.8 14.506667-20.48 21.76-7.68 7.253333-14.08 14.933333-14.08 17.493334 0 2.56-5.546667 9.813333-12.8 15.36-17.493333 14.933333-16.213333 18.773333 2.986666 7.253333 13.653333-8.106667 15.786667-8.533333 19.2-2.56 4.266667 7.68 20.48 9.386667 20.48 2.56 0-2.56-1.706667-4.266667-4.266666-4.266667-2.133333 0-4.266667-4.693333-4.266667-10.666666s2.133333-10.666667 4.266667-10.666667c2.56 0 4.266667 1.706667 4.266666 4.266667 0 2.133333 2.56 2.986667 5.973334 1.706666 4.266667-1.706667 5.12 0.426667 3.84 8.106667-1.706667 8.96-0.426667 10.24 8.106666 9.386667 22.613333-2.986667 56.746667-20.48 70.826667-36.693334 7.68-8.96 17.066667-16.64 20.053333-16.64 9.386667 0 27.733333-9.386667 27.733334-14.08 0-2.133333-2.56-1.706667-5.973334 1.28-5.546667 4.266667-5.546667 3.413333-1.28-5.973333 2.986667-5.973333 6.826667-11.093333 8.533334-11.093333 2.133333 0 2.133333 2.56 0.426666 5.12-2.56 4.266667-1.706667 4.266667 2.986667 0 2.986667-2.56 8.96-5.12 13.226667-5.12 10.24 0 38.4-14.506667 45.653333-23.04 4.693333-5.546667 4.693333-6.826667 0-6.826667s-4.693333-0.853333 0.426667-4.266667c15.786667-10.24-4.693333-2.133333-27.733334 11.093334z m23.466667-3.413334c0 3.413333-27.306667 17.92-33.28 17.92-1.706667 0 4.693333-4.693333 14.08-10.24 20.48-12.373333 19.2-11.946667 19.2-7.68zM433.066667 140.8c-4.693333 2.133333-11.52 3.84-14.933334 3.84-3.84 0-3.413333-1.706667 2.133334-3.84 4.693333-2.133333 11.52-3.84 14.933333-3.84 3.84 0 3.413333 1.706667-2.133333 3.84zM392.533333 146.773333c0 0.853333-3.84 2.56-8.533333 3.84-4.693333 1.28-7.68 0.426667-5.973333-1.706666 2.133333-3.84 14.506667-5.546667 14.506666-2.133334z m67.413334 7.68c0.853333 4.693333-4.693333 9.813333-18.346667 15.786667-11.946667 5.12-18.773333 10.666667-17.066667 13.226667 5.12 8.106667-10.666667 21.333333-21.76 18.773333-7.253333-1.706667-12.8 0.426667-20.48 8.96-11.093333 11.946667-21.333333 11.52-16.64-0.853333 1.706667-4.266667 0.853333-5.973333-1.706666-4.266667-8.106667 5.12-18.346667-1.706667-18.346667-11.52 0-8.533333 18.773333-40.96 23.893333-40.96 1.28 0-1.706667 5.546667-6.4 11.946667-4.693333 6.826667-9.813333 17.493333-11.093333 24.746666-2.133333 9.813333-0.853333 8.533333 5.546667-5.546666 11.52-23.466667 23.466667-30.72 55.893333-33.28 14.933333-0.853333 28.16-2.986667 29.44-4.266667 4.693333-4.693333 15.786667 0 17.066667 7.253333z" p-id="4419"></path><path d="M410.453333 188.586667c-5.973333 5.973333-6.826667 11.946667-0.853333 11.946666 2.133333 0 5.973333-3.84 8.533333-8.533333 5.12-9.386667 0.426667-11.52-7.68-3.413333zM646.4 136.106667C617.386667 149.333333 601.6 175.786667 601.6 211.2c0 31.573333 32.426667 83.2 51.626667 83.2 4.266667 0 8.96 1.706667 10.24 4.266667 1.28 2.133333 6.826667 4.266667 12.373333 4.266666 5.12 0 13.226667 2.986667 17.92 6.826667 7.68 6.4 7.68 6.4-0.853333 2.133333-5.12-2.56-19.626667-5.546667-32.426667-7.253333-46.933333-5.546667-84.906667 29.866667-67.413333 62.293333 5.973333 11.093333 18.346667 17.493333 25.6 12.8 4.693333-2.986667 4.266667-5.12-3.413334-11.52-13.226667-11.093333-15.786667-27.733333-6.4-37.973333 4.266667-4.693333 5.973333-5.973333 3.84-2.986667-2.133333 3.413333-2.56 6.826667-1.28 8.106667 1.28 1.28 4.266667-1.28 6.826667-5.973333 6.4-11.946667 27.733333-19.2 47.786667-16.64 19.626667 2.56 37.973333 17.493333 48.64 39.253333 14.506667 30.72 5.973333 51.2-34.133334 82.773333-42.666667 33.28-58.88 63.146667-64.853333 116.48-1.28 13.653333-4.266667 24.746667-6.4 24.746667s-2.56 2.133333-1.28 4.266667 11.093333 4.266667 21.333333 4.266666c19.626667 0 25.173333 3.413333 19.626667 12.373334-4.266667 6.826667-20.053333 4.266667-18.773333-2.986667 1.28-5.12-9.813333-2.56-19.2 4.693333-4.266667 3.413333-3.84 5.973333 1.706666 11.946667 5.546667 6.4 5.973333 9.386667 2.133334 14.08-7.253333 8.96-2.56 14.506667 14.08 17.92 11.946667 2.133333 17.493333 0 32.426666-10.666667 9.813333-7.253333 20.053333-11.946667 22.613334-10.24 2.133333 1.28 6.826667-0.853333 10.24-5.12 7.253333-10.666667 7.253333-2.133333-0.426667 12.8-5.546667 10.666667-6.4 10.666667-10.24 3.84-4.266667-7.253333-5.973333-6.4-25.173333 9.386667-11.093333 9.813333-22.613333 21.76-25.173334 26.453333-2.56 5.12-9.813333 13.226667-15.786666 18.346667-6.826667 5.12-10.24 11.093333-8.533334 13.653333 1.706667 2.986667-0.426667 2.56-4.266666-0.853333-9.386667-7.253333-9.386667-14.933333 0.426666-22.186667 6.826667-5.546667 6.826667-5.546667 0.853334 2.133334-5.546667 7.253333-5.546667 8.106667 0 5.973333 3.413333-0.853333 7.253333-5.546667 7.68-9.386667 1.28-5.973333-0.426667-7.253333-7.253334-4.693333-6.826667 2.133333-8.96 0.853333-8.96-4.266667 0-5.546667 2.56-6.826667 10.666667-5.546666 5.973333 1.28 14.08-0.426667 17.92-3.413334 13.653333-9.813333-5.12-12.373333-23.04-2.986666-13.653333 7.253333-16.213333 11.093333-17.066667 23.04-0.426667 7.68 1.28 17.92 3.413334 22.186666 2.986667 5.546667 2.986667 9.813333-0.853334 14.08-2.56 3.413333-3.413333 5.973333-1.706666 5.973334s0.853333 2.986667-2.133334 6.4c-4.693333 5.546667-4.266667 5.973333 1.706667 3.84 3.84-1.28 6.826667-0.853333 6.826667 1.706666 0 5.546667-11.946667 10.24-14.506667 5.546667-1.28-1.706667-1.706667-11.093333-1.28-20.906667 0.853333-9.813333 0-17.92-1.28-17.92s-8.106667 3.84-15.36 8.106667c-10.24 6.4-13.226667 10.666667-11.52 18.346667 1.28 7.68-1.28 11.52-11.093333 17.493333-7.253333 4.266667-15.786667 6.4-18.773334 5.12-2.56-1.706667-1.28 0.426667 2.986667 3.84 9.386667 7.68 5.973333 8.96-5.546667 2.56-10.666667-5.546667-14.506667-16.64-8.533333-23.893333 6.4-7.68 2.133333-7.253333-25.6 2.133333-14.506667 5.12-20.48 8.96-15.786667 10.24 5.973333 1.706667 5.973333 2.133333-0.426666 1.28-11.093333-0.853333-12.8-15.36-1.706667-15.36 4.693333 0 13.653333-2.133333 19.626667-5.12 16.64-7.253333 3.413333-12.8-13.653334-5.546667-8.96 3.84-13.226667 4.266667-11.52 1.28 1.706667-2.56 2.986667-10.666667 2.56-17.92-0.426667-9.386667 2.986667-16.213333 11.093334-23.04 6.4-5.546667 8.96-8.96 6.4-7.253333-2.986667 1.28-5.546667 0.853333-5.546667-1.28 0-5.546667-17.92-1.28-23.466667 5.12-5.12 5.973333-14.08 8.533333-26.88 8.106667-6.826667-0.426667-11.093333 2.986667-13.653333 9.813333-2.56 5.973333-7.253333 11.52-10.666667 12.8-5.973333 2.56-5.546667 3.413333 0.853334 8.106667 5.973333 4.693333 6.4 6.4 1.706666 12.373333-8.533333 10.24 11.946667 18.773333 27.733334 11.52 6.4-2.56 12.373333-4.266667 13.226666-2.986667 3.84 3.84-3.413333 11.093333-11.093333 11.093334-4.266667 0-13.653333 2.133333-20.906667 4.693333-11.946667 4.266667-13.226667 5.973333-11.093333 15.786667 4.266667 16.64 8.533333 20.053333 20.48 14.933333 7.253333-3.413333 11.52-3.413333 14.506667-0.426667 3.413333 3.413333 12.373333 2.986667 31.573333-2.133333 14.933333-3.413333 38.4-8.96 52.48-11.946667 14.08-2.56 32-8.533333 39.68-13.226666 8.106667-4.266667 16.213333-6.826667 18.346667-5.12 2.56 1.28 10.666667-2.133333 18.773333-7.253334 13.226667-9.386667 14.08-10.666667 7.68-17.493333-3.413333-3.84-5.12-9.386667-3.413333-11.946667 2.133333-3.413333 4.693333-2.56 8.106666 2.56 6.826667 8.96 21.333333 5.973333 38.4-7.253333 9.386667-7.253333 11.52-11.946667 9.386667-20.906667-1.706667-8.96 0.426667-14.08 7.253333-19.626666l9.386667-8.106667-8.106667 9.813333c-10.24 11.946667-6.826667 16.64 3.84 5.12 4.266667-4.693333 12.8-8.533333 18.773334-8.533333 5.973333-0.426667 39.68-5.546667 74.24-12.373333 58.026667-10.666667 64.426667-12.8 76.8-25.173334 7.253333-7.68 11.093333-13.653333 8.533333-13.653333-2.986667 0-7.253333 3.84-9.813333 8.533333-2.56 4.693333-6.826667 8.533333-9.386667 8.533334-2.56 0-0.426667-4.693333 4.693333-10.24 8.96-9.386667 9.386667-13.226667 8.106667-61.013334-0.853333-32.853333 0.426667-53.333333 3.413333-57.173333 12.373333-15.36 14.933333-24.746667 9.386667-33.706667-4.693333-7.253333-4.266667-9.386667 0.853333-12.8 5.546667-3.84 5.546667-4.266667 0-4.266666-14.08 0-24.746667 5.12-22.613333 11.093333 5.12 13.226667-5.973333 5.12-13.653333-10.24-12.8-24.32-12.8-25.173333 0.426666-13.653333l12.373334 10.666666-10.24-11.52c-5.546667-6.4-11.946667-10.666667-13.653334-9.386666-1.706667 0.853333-5.546667-5.546667-8.533333-14.506667-3.84-13.653333-3.413333-18.773333 2.133333-29.866667 3.84-7.68 6.4-14.506667 5.973334-15.36-0.853333-0.853333 0.426667-3.413333 2.56-5.546666s2.56-1.28 0.853333 1.706666c-3.84 6.826667 25.173333 7.68 29.44 1.28 1.706667-2.56-2.986667-4.266667-10.666667-4.266666-8.533333 0-12.373333-1.706667-10.24-4.693334 3.84-6.4-21.333333 6.826667-27.733333 14.933334-9.813333 11.52-6.4 42.666667 8.106667 72.96 24.32 50.773333 25.173333 68.693333 5.546666 90.026666-17.066667 18.346667-7.253333 38.4 14.933334 29.44 6.826667-2.986667 6.826667-3.413333 0-5.973333-6.826667-2.56-6.826667-2.986667 1.28-8.533333 8.106667-4.693333 8.96-4.693333 6.826666 1.28-1.706667 3.84-0.853333 6.826667 1.706667 6.826666 2.56 0 2.56 2.986667-0.426667 8.533334-5.546667 10.666667-23.893333 11.093333-34.986666 1.28-7.68-6.826667-8.96-6.826667-20.906667 0.426666-8.96 5.546667-14.506667 6.4-17.493333 3.413334-5.546667-5.546667-16.213333-1.706667-16.213334 5.973333 0 3.413333 3.413333 13.653333 7.68 23.466667 5.12 12.8 10.24 17.92 18.773334 19.626666 6.4 1.28 10.666667 3.84 9.386666 5.973334-2.56 4.266667-22.613333-2.986667-32.426666-11.946667-4.266667-3.84-7.68-10.24-7.68-14.933333 0-4.266667-1.706667-7.68-3.413334-7.68s-3.413333-9.813333-3.84-21.333334v-21.333333l21.76 2.56c11.946667 1.706667 23.466667 2.986667 25.6 3.413333 2.133333 0 4.693333-2.133333 5.546667-5.12 3.84-9.813333-57.173333-6.4-89.6 4.693334-15.786667 5.546667-27.306667 11.52-25.6 12.8 1.28 1.706667 0.853333 2.986667-1.28 2.986666-6.826667 0-14.506667-9.813333-14.506667-18.346666 0-4.266667 1.706667-6.826667 3.84-5.12 2.133333 1.28 5.546667 0 7.253334-2.56 1.706667-3.413333 1.28-3.84-1.706667-2.133334-3.84 2.133333-5.12-3.84-5.12-20.906666 0-21.333333 1.28-25.173333 15.36-39.68 8.533333-8.533333 13.226667-12.373333 10.24-8.533334-3.413333 5.12-3.84 7.68-0.853333 7.68 4.693333 0 11.52-8.106667 11.52-13.653333 0-1.28 1.706667-4.266667 3.84-6.4s2.56-1.28 0.853333 2.133333c-2.56 4.266667-0.426667 4.693333 8.106667 2.56 8.96-2.133333 14.08 0 24.746666 10.24 10.24 9.813333 15.36 12.373333 20.053334 9.386667 5.546667-3.84 5.546667-4.693333 0-8.106667-3.413333-2.56-4.693333-5.546667-2.986667-7.253333 4.693333-4.693333-5.546667-14.506667-15.786667-14.506667-10.666667 0-19.626667-7.253333-19.626666-16.213333 0-3.84 2.56-5.12 6.826666-3.413333 7.68 2.986667 35.84-22.613333 35.84-32.426667-0.426667-2.986667-2.986667-0.426667-6.826666 5.973333-3.413333 6.4-10.24 14.08-15.786667 16.64l-9.386667 5.12 9.386667-10.24c20.906667-23.04 22.613333-56.32 4.693333-84.906666-5.12-8.106667-9.386667-17.066667-9.813333-19.2 0-5.12-43.946667-27.306667-54.613333-27.306667-4.266667-0.426667-6.826667-2.133333-5.546667-4.266667 1.28-2.133333-0.853333-6.4-5.12-9.386666-6.4-5.546667-6.826667-5.12-1.28 1.28 9.386667 12.373333-1.28 8.96-13.653333-4.266667-11.946667-12.373333-15.36-20.48-5.973334-15.36 2.986667 1.706667 3.84 1.28 1.706667-0.853333s-5.973333-3.84-8.533333-3.84c-2.986667 0-4.693333-3.413333-4.693334-7.68 0.426667-3.84-0.853333-5.973333-2.986666-5.12-1.706667 1.28-5.546667-5.546667-8.106667-15.36-4.693333-17.493333-1.28-34.986667 9.813333-49.493334 2.133333-2.986667 2.133333-7.68 0.426667-10.666666s-1.706667-4.266667 0.426667-2.56c3.84 3.84 14.933333-3.84 14.933333-10.24 0-2.56-3.413333-1.706667-7.253333 1.28-6.826667 5.546667-7.253333 5.12-2.133334-1.28 3.413333-3.84 8.106667-6.4 11.52-5.12 2.986667 1.28 6.826667 0.426667 8.533334-2.133334 1.28-2.56 10.24-4.693333 19.626666-4.693333 23.466667 0 35.413333 12.373333 32.426667 34.56-2.56 17.92-0.426667 19.626667 11.946667 11.093333 7.68-5.973333 7.68-8.96-4.693334-38.826666-2.56-6.4-1.706667-7.253333 2.986667-4.693334 5.12 3.413333 5.12 2.56 0-3.413333-6.4-7.68-11.093333-9.813333-6.826667-2.986667 1.28 2.133333 0.426667 4.266667-2.133333 4.266667s-5.546667-2.986667-6.826667-6.4c-3.413333-8.96-29.866667-8.106667-50.773333 1.706667z m72.533333 179.626666c1.28 2.133333 0.853333 4.266667-1.706666 4.266667-2.133333 0-5.546667-2.133333-6.826667-4.266667-1.28-2.56-0.853333-4.266667 1.706667-4.266666 2.133333 0 5.546667 1.706667 6.826666 4.266666z m17.92 64.853334c-1.28 3.413333-2.56 2.133333-2.56-2.56-0.426667-4.693333 0.853333-7.253333 2.133334-5.546667 1.28 1.28 1.706667 5.12 0.426666 8.106667zM674.133333 453.973333c0 0.853333-3.413333 4.266667-7.253333 7.253334-6.826667 5.546667-7.253333 5.12-1.706667-1.706667 5.546667-6.826667 8.96-8.96 8.96-5.546667z m122.453334 122.026667c7.253333 5.546667 8.533333 8.533333 4.693333 8.533333-3.413333 0-9.813333-3.84-14.08-8.533333s-6.4-8.533333-4.693333-8.533333c1.706667 0 8.106667 3.84 14.08 8.533333z m-114.773334 9.813333c6.4 17.066667 6.4 28.586667 0.853334 28.586667-2.133333 0-2.986667-2.56-1.706667-5.973333 1.28-3.413333-0.853333-11.946667-4.266667-19.2-7.68-14.506667-8.106667-17.493333-3.413333-17.493334 1.706667 0 5.546667 6.4 8.533333 14.08z m20.48-3.413333c4.266667 16.64 0 20.48-5.12 4.266667-2.56-8.106667-2.986667-14.933333-1.28-14.933334 2.133333 0 4.693333 4.693333 6.4 10.666667z m61.44 0.426667c0 0.853333-2.986667 1.706667-6.4 1.706666s-6.4-1.706667-6.4-4.266666c0-2.133333 2.986667-2.986667 6.4-1.706667 3.413333 1.706667 6.4 3.413333 6.4 4.266667z m-43.093333 19.626666c-0.426667 18.346667-11.093333 46.08-17.92 46.08-7.253333 0-8.106667-13.653333-0.853333-20.48 5.973333-5.546667 6.826667-5.546667 4.266666-0.853333-2.56 4.693333-2.133333 5.12 1.28 2.133333 2.986667-2.56 5.973333-13.226667 6.826667-23.466666 2.56-23.04 2.133333-21.333333 4.693333-21.333334 1.28 0 2.133333 8.106667 1.706667 17.92zM665.6 597.333333c0 4.693333-1.706667 8.533333-4.266667 8.533334-2.133333 0-4.266667-3.84-4.266666-8.533334s2.133333-8.533333 4.266666-8.533333c2.56 0 4.266667 3.84 4.266667 8.533333z m98.133333 2.133334c5.973333 8.106667 5.973333 8.106667-0.853333 2.56-4.266667-2.986667-7.68-7.68-7.68-10.24 0-2.56 0.426667-3.413333 1.28-2.56 0.426667 0.853333 3.84 5.546667 7.253333 10.24z m-124.586666 8.96c5.546667 3.84 13.653333 5.973333 18.346666 4.693333 11.52-2.986667 10.24 2.133333-4.693333 16.213333-10.666667 10.24-13.653333 11.093333-19.2 6.4-3.84-2.986667-5.546667-8.533333-4.266667-11.52 0.853333-3.413333 0-9.813333-2.133333-14.506666-5.546667-9.813333-0.853333-10.24 11.946667-1.28z m10.666666 59.306666c-1.28 3.84-3.413333 5.973333-4.266666 4.693334-1.28-1.28-0.853333-3.84 0.853333-6.4 3.84-6.826667 6.4-5.546667 3.413333 1.706666z m-7.68 23.466667c-1.28 2.133333 0.426667 4.266667 2.986667 5.546667 2.986667 0.853333 4.266667 3.413333 2.56 5.12-4.693333 5.12-20.48-10.666667-17.493333-17.493334 1.706667-4.693333 3.84-5.12 8.106666-1.28 3.413333 2.56 5.12 6.4 3.84 8.106667z m-185.6-5.12c0 8.533333-11.946667 17.493333-26.453333 20.053333-8.96 1.706667-16.213333 2.133333-16.213333 0.853334 0-8.106667 5.973333-14.506667 11.946666-12.8 3.84 0.853333 11.093333-1.28 15.786667-4.693334 9.386667-7.253333 14.933333-8.533333 14.933333-3.413333z m168.106667 20.053333c2.986667 11.946667 2.56 12.373333-4.266667 5.546667-4.266667-4.266667-5.973333-9.813333-4.266666-14.506667 3.413333-8.96 4.693333-7.253333 8.533333 8.96z m-180.906667 15.36c-6.4 8.533333-12.373333 12.373333-18.773333 11.52-12.373333-1.706667-12.373333-17.493333 0.426667-18.346666 5.546667-0.426667 11.093333-2.133333 12.8-3.413334 1.28-1.706667 5.546667-2.986667 8.533333-2.986666 4.693333 0 3.84 3.413333-2.986667 13.226666z m119.466667 20.906667c0 4.693333-1.706667 8.533333-4.266667 8.533333-2.133333 0-4.266667-3.84-4.266666-8.533333s2.133333-8.533333 4.266666-8.533333c2.56 0 4.266667 3.84 4.266667 8.533333z m-14.933333 8.533333c1.28 2.56-1.706667 4.266667-7.253334 4.266667-7.68 0-8.533333-0.853333-3.413333-4.266667 8.106667-5.12 7.68-5.12 10.666667 0z m-60.16 13.226667c-3.413333 5.973333-14.506667 4.693333-14.506667-1.706667 0-3.413333 1.28-7.253333 2.986667-8.533333 3.84-3.84 14.506667 5.546667 11.52 10.24z" p-id="4420"></path><path d="M634.026667 620.8c-1.28 3.413333-0.426667 6.4 1.706666 6.4 2.56 0 4.266667-2.986667 4.266667-6.4s-0.853333-6.4-1.706667-6.4-2.56 2.986667-4.266666 6.4zM421.546667 728.32c2.986667 1.28 6.826667 0.853333 8.106666-0.426667 1.706667-1.28-0.853333-2.56-5.546666-2.133333-4.693333 0-5.973333 1.28-2.56 2.56zM184.746667 189.013333c-18.773333 19.2-42.24 47.36-52.053334 62.293334C113.066667 279.893333 76.8 352.853333 76.8 363.093333c0 3.413333 6.4-8.96 14.506667-26.88 26.453333-60.586667 58.453333-107.093333 106.24-153.173333 16.64-16.213333 28.16-29.44 25.6-29.44-2.56 0-19.626667 15.786667-38.4 35.413333zM471.466667 225.706667c-11.52 3.84-23.893333 8.533333-26.88 10.666666-8.533333 5.546667-17.92-5.12-9.386667-10.666666 8.533333-5.973333-21.76-1.28-66.133333 9.813333-18.346667 4.693333-39.68 7.253333-46.933334 5.973333-14.08-2.56-26.026667 2.56-21.76 9.386667 1.706667 2.986667-1.28 3.413333-10.24 0.853333-7.68-2.133333-11.946667-2.133333-10.666666 0.426667 1.28 2.133333-0.426667 2.56-3.84 1.28-8.96-3.413333-8.533333-13.226667 0.853333-15.786667 3.84-1.28-1.706667-2.133333-12.8-2.56-26.026667-0.426667-34.986667 2.986667-28.586667 10.666667 7.68 9.386667 2.133333 11.093333-14.506666 3.84-17.066667-7.253333-36.266667-8.106667-44.8-2.56-7.253333 4.693333-0.426667 7.253333 38.826666 15.786667 29.44 5.973333 43.52 4.693333 32.426667-3.413334-4.266667-2.986667-3.413333-3.413333 2.56-1.28 4.693333 1.706667 28.16 4.266667 52.48 5.546667 49.92 2.133333 51.2 5.12 9.813333 26.453333-28.16 14.506667-43.52 25.173333-35.413333 25.6 6.4 0 2.56 8.533333-3.84 8.533334-2.56 0-2.986667-2.133333-1.706667-4.266667 1.28-2.56 0.426667-4.266667-2.56-4.266667-3.413333 0-3.413333-1.706667 0.426667-6.4 4.693333-5.546667 3.413333-5.546667-8.106667-1.706666-12.373333 4.266667-18.346667 12.373333-8.96 12.373333 7.68 0 4.266667 7.68-4.266666 9.813333-4.693333 1.28-8.533333 4.266667-8.533334 6.826667 0 2.986667 2.986667 2.986667 10.24 0 8.106667-3.84 12.373333-3.413333 20.053334 2.133333 6.826667 4.693333 19.2 6.826667 40.533333 6.826667 34.56 0 52.906667 9.813333 52.906667 27.733333 0 12.8-15.36 32-20.48 24.746667-4.266667-6.4-15.786667 0-11.946667 6.826667 5.973333 9.386667 38.826667 3.84 43.093333-6.826667 1.706667-5.546667 1.28-5.973333-4.266666-1.28-12.373333 10.24-11.093333 1.28 2.133333-12.8 12.8-13.653333 16.213333-19.626667 8.533333-14.933333-2.133333 1.28-4.266667 0.426667-4.266666-2.56s-4.266667-10.24-9.386667-16.213334l-9.813333-10.666666 12.373333 7.68c6.826667 4.266667 10.666667 5.546667 8.96 2.56-8.533333-14.08-67.84-22.613333-96-14.506667-10.24 2.986667-10.24 2.986667-3.84-7.253333 3.84-5.546667 13.226667-13.653333 21.333333-17.92s14.08-9.386667 13.226667-11.946667c-0.426667-2.56 0.853333-2.986667 3.413333-1.706667 2.56 1.706667 8.106667 0 11.946667-3.413333 12.373333-11.093333 52.906667-24.746667 83.2-28.16 25.6-2.56 37.546667 0 23.466667 5.12-6.826667 2.133333 12.373333 24.32 21.333333 24.32 5.12 0 5.12 1.28 0.853333 6.4s-4.266667 6.4 1.706667 6.4c8.533333 0 8.96 8.106667 0.426667 11.093333-4.693333 2.133333-5.546667 4.266667-2.133334 8.106667 2.986667 3.84 3.413333 6.4 0.426667 8.106667-2.56 1.706667-3.413333 5.546667-2.133333 8.533333 1.28 2.986667-7.253333 15.786667-18.773334 28.586667-23.04 25.173333-25.173333 29.013333-18.346666 33.28 2.986667 2.133333 0.853333 8.533333-6.4 18.773333-5.546667 8.533333-8.533333 15.786667-6.4 15.786667 7.68 0 34.56-14.08 34.56-17.92 0-2.133333-1.706667-2.56-4.266667-1.28-2.133333 1.28-4.266667-0.426667-4.266667-3.84s2.133333-7.68 4.266667-8.96c2.56-1.28 4.266667-0.426667 4.266667 1.706666 0 2.56 2.133333 4.693333 4.266666 4.693334 5.12 0 30.293333-17.066667 34.986667-23.466667 3.413333-5.12 0.426667-10.666667-6.4-10.666667-2.986667 0-2.56 1.706667 1.28 4.266667 5.546667 3.413333 5.546667 4.266667-0.853333 4.266667-3.84 0-10.24-4.266667-14.08-9.386667-5.973333-8.96-5.973333-10.24 0.426666-14.933333 3.84-2.56 5.546667-6.826667 3.84-9.386667-1.28-2.56-0.853333-4.693333 1.706667-4.693333 7.68 0 9.813333 8.96 3.84 15.786666-5.12 6.4-4.266667 6.826667 8.106667 4.266667 12.373333-2.56 13.653333-1.706667 16.213333 9.813333 3.413333 15.786667 20.906667 29.866667 37.12 29.866667 14.506667 0 29.013333-6.826667 29.013333-13.653333 0-2.986667-2.133333-2.56-6.4 0.853333-8.533333 6.826667-8.106667 2.56 0.426667-5.973333 3.413333-3.84 4.693333-6.826667 2.133333-6.826667-2.56 0-8.533333 3.84-13.226666 8.533333s-11.52 8.533333-14.933334 8.533334c-6.826667 0-16.64-15.36-12.8-21.333334 1.28-2.133333 0.426667-4.693333-2.133333-6.4-2.133333-1.28-4.266667-0.426667-4.266667 2.56s-4.693333-1.28-9.813333-9.386666c-11.52-16.64-10.666667-23.893333 0.853333-8.533334 6.4 8.533333 8.106667 8.96 10.24 2.986667 1.706667-3.84 0.853333-11.52-1.28-17.493333-2.133333-5.973333-2.56-10.666667-1.28-10.666667 1.706667 0 0.853333-2.133333-2.133333-5.12s-5.12-11.52-5.12-19.2c0-8.96-2.56-15.36-6.4-16.64-3.413333-1.706667-6.4-4.693333-6.4-7.253333 0-2.56-2.986667-7.68-6.826667-11.946667-9.386667-10.24-5.12-19.626667 13.226667-28.16 14.933333-7.253333 14.933333-7.253333 27.306667 4.693333 8.96 8.533333 14.933333 11.093333 20.48 8.96 6.4-2.56 6.4-3.413333 1.28-5.12-3.413333-1.28-10.666667-6.4-16.213334-11.093333-6.826667-6.4-14.506667-8.533333-26.453333-8.106667-19.626667 1.28-46.933333 11.946667-46.933333 17.92 0 2.986667 2.56 2.986667 8.106666 0.426667 10.666667-5.973333 14.08-1.28 6.826667 9.386667-5.12 7.253333-5.12 9.386667 0.426667 14.933333 8.533333 8.533333 4.693333 11.093333-6.4 4.266667-5.12-2.986667-8.106667-8.106667-6.826667-11.52 1.706667-3.84 0-4.693333-4.693333-2.986667-4.693333 1.706667-5.973333 0.426667-3.84-5.546667 1.706667-5.973333 0.426667-8.106667-5.12-7.253333-4.266667 0-8.106667-2.986667-8.96-7.68-0.853333-4.693333 0-6.826667 2.986666-5.12 3.84 2.56 42.24-8.106667 70.826667-19.2 17.493333-6.826667-11.946667-3.413333-34.133333 4.266667z m-139.946667 24.32c-1.28 1.28-5.12 1.706667-8.106667 0.426666-3.413333-1.28-2.133333-2.56 2.56-2.56 4.693333-0.426667 7.253333 0.853333 5.546667 2.133334z m35.413333 16.213333c0 0.853333-2.986667 2.986667-6.826666 4.266667-3.413333 1.28-5.12 0.853333-3.84-1.706667 2.56-4.266667 10.666667-5.973333 10.666666-2.56z m116.053334 33.706667c2.986667-1.706667 3.84 0 2.133333 4.266666-1.28 4.266667-0.853333 7.253333 0.853333 7.253334 5.973333 0 9.813333 13.653333 4.693334 18.773333-2.986667 2.986667-4.266667 1.706667-4.266667-3.413333 0-3.84-2.986667-10.24-6.4-13.653334-3.413333-3.84-5.973333-10.666667-5.973333-15.786666 0.426667-7.253333 0.853333-7.68 2.56-1.706667 0.853333 3.84 3.84 5.973333 6.4 4.266667z m1.706666 38.826666c5.546667-1.28 10.24-0.853333 10.24 1.706667 0 4.266667-9.813333 9.386667-17.066666 9.386667-6.826667 0-12.373333-15.36-9.386667-26.026667 2.56-9.386667 2.986667-9.386667 4.266667 3.84 1.28 12.373333 2.56 13.226667 11.946666 11.093333zM460.8 398.933333c-2.986667 3.84-6.4 5.546667-7.253333 4.693334-2.986667-2.986667 2.986667-11.093333 8.106666-11.093334 2.56 0 2.56 2.56-0.853333 6.4z" p-id="4421"></path><path d="M521.386667 224.853333c-3.84 1.706667-2.133333 5.546667 5.546666 12.373334 12.8 11.946667 19.2 13.653333 9.813334 2.56-3.84-3.84-7.253333-9.386667-8.106667-11.946667-0.853333-2.56-4.266667-3.84-7.253333-2.986667zM490.666667 283.306667c0 0.853333 2.986667 2.986667 6.826666 4.266666 3.413333 1.28 5.12 0.853333 3.84-1.706666-2.56-4.266667-10.666667-5.973333-10.666666-2.56zM751.786667 384c0 5.973333 0.853333 8.106667 2.133333 5.12 0.853333-2.56 0.853333-7.68 0-10.666667-1.28-2.56-2.133333-0.426667-2.133333 5.546667zM68.693333 390.826667c0 4.693333 1.28 5.973333 2.56 2.56 1.28-2.986667 0.853333-6.826667-0.426666-8.106667-1.28-1.706667-2.56 0.853333-2.133334 5.546667zM395.093333 405.333333c-6.826667 4.266667-29.013333 13.226667-49.066666 19.2-73.386667 23.04-124.586667 54.613333-140.8 87.04-25.6 50.773333-28.586667 154.026667-4.693334 154.026667 9.386667 0 11.52 6.826667 3.413334 9.386667-2.986667 1.28-3.84 5.12-2.133334 9.386666 2.56 6.4 4.266667 6.826667 9.813334 2.56 4.693333-4.266667 7.68-4.266667 11.093333-0.853333 3.84 3.84 2.986667 6.4-3.413333 11.52-7.253333 5.546667-6.826667 5.973333 8.106666 3.413333 17.493333-2.56 22.186667 4.266667 6.4 9.386667-9.386667 2.986667-8.96 3.413333 2.986667 5.973333 8.533333 1.706667 11.093333 3.84 7.253333 5.973334-2.986667 2.133333-4.266667 5.12-3.413333 6.826666 2.986667 4.693333 27.733333 2.133333 34.986667-3.84 3.413333-2.986667 7.68-4.266667 8.96-2.56 1.706667 1.706667 0.426667 4.693333-2.986667 7.253334-5.546667 3.413333-5.12 4.693333 2.133333 9.386666 4.693333 2.56 13.226667 5.12 18.773334 5.12 12.8 0 16.64 8.96 4.693333 11.946667-9.813333 2.56-11.52 19.2-3.84 33.706667 2.56 4.693333 3.413333 12.8 2.133333 17.92-2.986667 12.8-23.466667 32.853333-29.866666 29.44-2.56-1.706667-1.706667 0.853333 1.706666 5.12 5.973333 7.253333 5.973333 7.68-2.986666 2.986666-5.12-2.986667-10.24-10.666667-11.946667-17.92-1.706667-7.68-4.693333-11.52-7.253333-10.24-2.986667 1.706667-3.413333 0.853333-1.706667-2.133333 1.706667-2.56 0-10.24-3.84-16.64l-6.826667-11.52 10.666667 11.946667c5.973333 6.4 11.093333 10.24 11.093333 8.106666s-4.266667-7.68-9.813333-12.8c-10.24-9.813333-22.186667-11.946667-32.426667-5.546666-4.693333 2.986667-3.84 4.266667 3.413334 6.826666 4.693333 1.28 8.96 5.973333 8.96 9.813334 0 3.84 4.693333 14.933333 10.24 24.32 8.106667 12.8 9.386667 18.773333 5.973333 24.746666-7.68 14.933333 2.56 16.213333 37.12 4.266667 40.96-13.653333 67.413333-35.413333 73.813333-61.013333 2.133333-9.386667 2.56-15.786667 0.426667-14.506667-2.133333 1.28-3.84 5.12-3.84 8.533333 0 11.946667-12.8 30.72-26.453333 40.106667-9.813333 6.4-11.52 6.826667-5.546667 1.28 22.613333-20.48 26.88-30.293333 26.88-61.013333 0-32.426667 4.266667-51.2 9.386667-42.666667 2.133333 3.413333 3.84 2.986667 5.546666-2.133333 1.706667-3.84 1.28-5.546667-1.28-4.266667-2.56 1.28-4.266667 0-4.266666-3.413333 0-10.24 4.693333-11.093333 13.226666-2.56 4.693333 4.693333 10.666667 6.826667 14.933334 5.12 6.4-2.56 6.4-2.986667 0-6.4-3.84-2.133333-5.973333-5.546667-5.12-7.253334 2.986667-4.693333-24.32-4.266667-30.293334 0.426667-2.986667 2.56-8.96 2.986667-12.8 1.706667-5.12-2.133333-5.973333-1.706667-3.413333 0.853333 2.56 2.56 8.106667 5.12 12.8 6.4 6.826667 1.706667 6.4 2.133333-2.56 2.56-8.106667 0.426667-16.64-5.546667-33.28-22.613333-11.946667-12.8-21.76-26.453333-21.76-30.293334 0-3.413333-2.986667-7.68-6.4-8.96-3.413333-1.706667-6.4-4.266667-6.4-6.4 0-2.56 4.266667-2.133333 9.813333 0.426667 8.96 4.693333 8.96 4.266667 1.28-1.706667-10.666667-8.533333-17.066667-8.533333-25.6 0-13.653333 13.226667-20.906667-3.84-7.68-18.346666 3.84-4.266667 5.973333-5.973333 4.266667-3.84-5.546667 6.826667-3.84 13.226667 1.706667 7.68 8.533333-8.533333 26.453333-5.546667 44.373333 7.253333C333.653333 661.333333 362.666667 669.866667 398.08 669.866667c25.173333 0 35.413333-2.133333 57.173333-12.373334 21.333333-10.24 26.026667-14.506667 24.746667-21.333333-0.853333-4.266667 1.28-9.386667 4.693333-10.666667 7.253333-2.56 8.106667 2.133333 1.28 8.96-2.986667 2.986667-1.28 4.266667 6.4 4.266667 6.4 0 12.373333-1.28 13.653334-3.413333 1.28-2.133333 0-3.84-2.133334-3.84-2.56 0-4.693333-2.56-4.693333-5.973334 0-6.826667 21.76-7.253333 26.453333-0.426666 2.133333 2.56 5.12 2.133333 8.533334-1.28 4.266667-4.266667 4.266667-6.4-0.853334-9.386667-5.12-2.986667-5.12-5.12-0.853333-9.386667 3.84-3.84 5.12-3.84 5.12 0.426667 0 3.413333 2.56 4.693333 6.826667 2.986667 9.386667-3.413333 25.6 10.24 17.92 14.933333-3.84 2.56-3.84 4.693333 0.426666 9.386667 4.266667 5.546667 3.84 7.253333-2.56 11.093333-5.546667 2.986667-5.973333 4.266667-1.706666 4.693333 3.413333 0 9.813333-3.413333 14.08-7.253333 4.266667-3.84 12.373333-7.68 17.493333-8.106667 5.12-0.853333 6.826667 0 4.266667 0.853334-5.973333 2.56-7.68 14.506667-2.133334 14.506666 1.706667 0 5.546667-1.706667 8.96-3.84 5.12-3.413333 3.84-6.4-5.546666-17.493333-6.4-7.68-10.24-14.933333-8.96-16.213333 1.28-1.706667 4.693333 0 6.826666 3.413333 3.84 5.546667 4.266667 5.546667 2.986667 0-1.28-4.266667-11.093333-8.106667-27.733333-10.666667-14.506667-2.56-27.733333-5.973333-29.866667-8.106666-1.706667-2.133333 1.28-2.56 7.253333-0.853334l10.666667 2.986667-10.666667-6.4c-5.973333-3.413333-12.373333-4.693333-14.933333-3.413333-44.373333 29.44-57.6 37.12-75.946667 46.08-25.173333 11.52-44.373333 12.8-72.533333 4.266666-11.093333-3.413333-19.2-4.266667-17.92-2.56 2.133333 3.413333 31.573333 10.666667 59.733333 14.506667 7.253333 1.28-0.426667 1.28-16.213333 0.426667-37.546667-2.56-61.866667-14.933333-72.96-37.973334-8.106667-17.066667-8.106667-17.066667 1.28-33.706666 8.106667-14.08 9.386667-20.053333 6.826667-43.52-2.986667-27.306667-0.426667-44.8 6.826666-44.8 2.56 0 2.56 2.986667-0.426666 8.106666-2.133333 4.693333-4.266667 11.093333-3.84 14.08 0 5.12 7.68-10.666667 9.386666-20.053333 0.426667-2.56 8.533333-8.96 17.92-14.506667 8.96-5.973333 14.506667-11.093333 11.52-12.373333-2.56-0.853333-11.52 3.413333-19.2 9.386667-8.106667 5.973333-17.92 11.093333-21.76 11.093333-4.266667 0-5.973333 2.133333-4.266666 4.693333 1.706667 2.986667 0.426667 4.266667-2.986667 2.986667-13.226667-4.266667-9.813333-29.866667 6.826667-49.493333 5.546667-6.826667 9.386667-13.653333 7.68-15.36-1.28-1.28-0.426667-2.56 2.56-2.56 3.413333 0 4.693333 2.986667 2.986666 6.4-1.28 3.413333-0.426667 6.4 1.706667 6.4 6.826667 0 4.693333 11.093333-4.266667 22.613333-14.08 17.92-9.386667 21.76 8.533334 6.826667 5.973333-4.693333 8.106667-7.68 5.546666-5.973334-2.986667 1.28-5.546667 0.853333-5.546666-1.706666 0-4.266667 24.32-26.026667 29.866666-26.026667 4.266667 0 17.493333-20.053333 19.2-30.293333 2.133333-9.813333-0.426667-9.813333-16.64 0.426666z m7.68 10.666667c-3.84 5.973333-7.68 10.666667-8.533333 10.666667-2.986667 0 4.266667-14.933333 8.533333-17.92 7.253333-5.12 7.253333-3.84 0 7.253333zM284.586667 550.4c20.48-2.133333 26.88 6.826667 6.826666 9.813333-11.093333 1.706667-11.093333 1.706667 2.133334 2.56 7.253333 0 13.653333 2.133333 13.653333 4.693334 0 5.973333-26.026667 0-34.986667-7.68-4.266667-3.413333-7.68-10.666667-7.68-15.36 0.426667-8.533333 0.426667-8.533333 5.973334-1.28 3.413333 4.266667 9.813333 7.68 14.08 7.253333z m12.373333 47.786667c8.533333 8.96 10.666667 13.653333 6.826667 14.933333-3.413333 1.28-2.133333 4.693333 4.266666 10.24 9.813333 8.106667 9.813333 8.106667-4.693333 0.853333-17.493333-8.106667-34.133333-26.026667-34.56-36.266666 0-10.24 13.653333-5.12 28.16 10.24z m10.666667-10.666667c5.546667 6.826667 5.12 7.253333-1.28 1.706667-4.266667-2.986667-7.68-6.4-7.68-7.253334 0-3.413333 3.413333-1.28 8.96 5.546667z m212.906666 20.48c-5.546667 5.973333-11.093333 9.386667-12.373333 8.106667-1.28-1.28 2.133333-5.973333 8.106667-10.24 14.506667-11.52 16.213333-10.666667 4.266666 2.133333z m-49.066666 36.266667c-1.28 2.133333-5.12 4.266667-7.68 4.266666-2.986667 0-2.56-1.706667 1.28-4.266666 8.106667-5.12 9.813333-5.12 6.4 0z m-200.533334 80.213333c-2.56 2.986667-14.933333-7.68-14.933333-13.226667 0-2.133333 3.84-0.853333 8.533333 3.413334s7.68 8.533333 6.4 9.813333z m47.36 2.986667c3.84 5.973333 6.4 11.946667 5.12 12.8-3.413333 3.413333-20.48-11.093333-20.48-17.493334 0-9.386667 7.68-7.253333 15.36 4.693334z" p-id="4422"></path><path d="M277.333333 594.773333c0 0.853333 3.413333 4.266667 7.68 7.253334 6.4 5.546667 6.826667 5.12 1.28-1.706667s-8.96-8.96-8.96-5.546667zM64.426667 407.893333c0 4.693333 1.28 5.973333 2.56 2.56 1.28-2.986667 0.853333-6.826667-0.426667-8.106666-1.28-1.706667-2.56 0.853333-2.133333 5.546666zM476.16 431.36c-37.12 8.96-62.293333 38.4-62.293333 73.386667 0 41.813333 34.986667 75.093333 78.933333 75.52 18.773333 0 64-18.773333 60.16-25.173334-1.28-2.133333 0-5.973333 3.413333-8.533333 8.533333-7.253333 16.64-40.96 13.653334-57.6-5.12-26.453333-30.293333-48.64-56.746667-49.92-11.093333-0.853333-10.666667-0.853333 2.986667-3.84l14.933333-2.986667-13.653333-0.853333c-7.253333 0-15.786667-1.28-19.2-2.133333-2.986667-0.853333-13.226667 0-22.186667 2.133333z m8.96 6.4c-1.28 1.28-5.12 1.706667-8.106667 0.426667-3.413333-1.28-2.133333-2.56 2.56-2.56 4.693333-0.426667 7.253333 0.853333 5.546667 2.133333z m-15.786667 3.413333c0 0.853333-2.986667 2.986667-6.826666 4.266667-3.413333 1.28-5.12 0.853333-3.84-1.706667 2.56-4.266667 10.666667-5.973333 10.666666-2.56z m-19.2 109.226667c4.266667 4.693333 6.826667 8.533333 5.546667 8.533333-1.28 0-5.546667-3.84-9.813333-8.533333-4.266667-4.693333-6.826667-8.533333-5.546667-8.533333 1.28 0 5.546667 3.84 9.813333 8.533333zM99.413333 438.186667c-2.986667 0.853333-3.84 4.693333-2.56 8.106666 1.28 3.413333-3.413333 10.666667-11.093333 17.493334-26.453333 23.466667-14.933333 56.32 40.96 116.053333 32.853333 34.986667 40.96 47.36 32 47.36-2.133333 0-13.653333-12.373333-26.026667-27.733333-23.893333-29.44-31.146667-35.413333-18.773333-16.213334l7.253333 11.946667-12.373333-10.666667c-14.506667-12.373333-11.093333-7.253333 23.04 32.853334 14.506667 17.066667 24.746667 25.6 28.586667 23.893333 3.413333-1.28 5.546667-4.693333 4.693333-7.253333-0.853333-2.56 0.853333-12.373333 4.266667-21.333334 2.986667-9.386667 4.693333-17.493333 3.413333-18.773333-1.28-1.28-2.133333 0-2.133333 2.986667s-2.133333 3.84-4.693334 2.56c-2.986667-2.133333-2.133333-5.12 1.706667-9.813334 8.96-9.813333 20.906667-57.173333 14.506667-55.04-7.68 2.56-15.786667 20.48-15.786667 34.986667 0 23.893333-8.106667 25.173333-28.16 4.693333-9.386667-10.24-20.48-24.746667-24.32-32-6.826667-13.653333-4.693333-17.493333 4.693333-8.106666 2.986667 2.986667 5.12 3.84 5.12 2.56 0-1.706667-6.4-7.253333-13.653333-12.373334-9.386667-6.826667-11.946667-7.253333-8.106667-2.56 3.413333 4.693333 3.84 7.253333 0.853334 7.253334-4.693333 0-17.493333-21.76-17.493334-29.44 0-2.133333 4.693333-9.386667 10.24-16.213334 5.546667-6.826667 10.666667-19.2 11.52-27.733333 1.706667-17.066667 0-20.48-7.68-17.493333z m2.986667 28.586666c0 0.853333-2.986667 2.986667-6.826667 4.266667-3.413333 1.28-5.12 0.853333-3.84-1.706667 2.56-4.266667 10.666667-5.973333 10.666667-2.56z" p-id="4423"></path><path d="M533.76 436.48c0.853333 0.853333 9.386667 6.4 18.773333 13.226667l17.066667 11.52-14.933333-12.8c-8.106667-7.253333-16.64-13.226667-18.773334-13.226667-2.133333 0-2.986667 0.426667-2.133333 1.28zM343.893333 449.706667c-9.813333 15.36-8.533333 18.773333 2.133334 5.12 5.12-6.4 8.106667-12.373333 6.826666-13.653334-0.853333-0.853333-5.12 2.986667-8.96 8.533334zM874.666667 446.293333c-14.08 5.546667-14.506667 5.973333-2.56 4.266667 14.506667-1.706667 28.16 7.68 17.066666 11.946667-3.413333 1.28-5.12 0.853333-3.84-1.706667 4.266667-6.826667-4.693333-4.693333-10.666666 2.133333-2.986667 3.84-8.533333 5.546667-11.946667 4.266667-5.12-1.706667-5.546667-1.28-1.28 3.84s3.413333 9.386667-6.4 21.76c-6.4 8.106667-10.666667 16.213333-9.386667 17.066667 1.28 1.28 7.253333-5.546667 13.226667-14.933334 12.373333-17.92 32.853333-31.146667 42.666667-27.306666 8.106667 2.986667 16.64 19.2 19.626666 37.546666 2.133333 11.52 3.84 14.08 8.533334 11.52 10.24-6.4 1.706667-33.28-16.64-53.333333-9.386667-10.24-15.786667-19.626667-14.08-20.906667 4.693333-4.693333-8.533333-2.56-24.32 3.84zM381.866667 448.426667c-4.693333 6.826667 0.853333 9.386667 13.653333 6.4 8.96-2.56 10.24-3.84 5.12-7.253334-8.106667-5.12-15.36-4.693333-18.773333 0.853334z" p-id="4424"></path><path d="M904.533333 445.44c0 0.853333 3.413333 4.266667 7.68 7.253333 6.4 5.546667 6.826667 5.12 1.28-1.706666s-8.96-8.96-8.96-5.546667zM724.48 450.986667c2.56 0.853333 7.68 0.853333 10.666667 0 2.56-1.28 0.426667-2.133333-5.546667-2.133334-5.973333 0-8.106667 0.853333-5.12 2.133334zM110.933333 462.506667c0 5.973333-2.133333 11.946667-4.266666 13.226666-2.56 1.28-7.253333 8.96-11.093334 16.213334l-6.826666 13.653333 13.226666-14.933333c7.253333-8.533333 12.8-20.053333 13.226667-26.88 0-6.4-0.853333-11.52-2.133333-11.52s-2.133333 4.693333-2.133334 10.24zM745.813333 457.386667c3.413333 3.84 4.693333 9.386667 2.986667 11.946666-1.28 2.133333-0.426667 4.266667 1.706667 4.266667 7.253333 0 5.546667-11.093333-2.56-17.493333-6.826667-5.546667-7.253333-5.12-2.133334 1.28zM663.893333 494.506667c-9.813333 18.346667-8.533333 22.186667 2.133334 5.12 4.693333-7.68 7.68-14.933333 6.4-16.213334-0.853333-1.28-5.12 3.84-8.533334 11.093334zM572.16 525.226667c-0.426667 3.84-4.693333 12.373333-9.813333 18.773333-5.973333 7.68-7.253333 11.093333-2.986667 9.813333 7.68-2.56 17.92-23.04 15.36-30.293333-1.28-2.986667-2.56-2.56-2.56 1.706667zM123.733333 541.866667c-5.546667 3.413333-5.12 4.266667 1.28 4.266666 3.84 0 7.253333-2.133333 7.253334-4.266666 0-5.12-0.426667-5.12-8.533334 0zM132.266667 558.506667c0 7.253333 6.4 8.106667 11.946666 2.133333 4.693333-5.12 3.84-5.973333-3.413333-5.973333-4.693333 0-8.533333 1.706667-8.533333 3.84zM732.16 561.493333c-2.133333 5.973333-1.706667 6.4 3.84 1.706667 7.253333-5.973333 8.106667-8.533333 2.56-8.533333-2.133333 0-5.12 2.986667-6.4 6.826666zM345.6 570.88c-6.4 10.666667-5.973333 11.946667 10.666667 29.866667 13.653333 14.506667 22.186667 19.626667 36.266666 22.186666 20.906667 3.84 52.48-3.84 64-15.786666 5.546667-5.546667 5.12-5.546667-6.4 0-33.706667 16.64-72.96 10.24-85.76-14.506667-6.826667-13.653333-11.52-16.64-7.253333-5.12 2.133333 7.253333 2.133333 7.253333-5.12 0.853333-5.973333-5.973333-6.4-8.96-2.133333-16.64 7.253333-13.653333 2.986667-14.506667-4.266667-0.853333zM347.733333 622.933333c4.266667 4.693333 8.533333 8.533333 9.813334 8.533334 1.28 0-1.28-3.84-5.546667-8.533334s-8.533333-8.533333-9.813333-8.533333c-1.28 0 1.28 3.84 5.546666 8.533333zM538.88 638.72c-5.973333 2.133333-7.68 9.813333-2.133333 9.813333 2.133333 0 6.826667-2.56 11.093333-5.546666 8.106667-5.973333 2.56-8.106667-8.96-4.266667zM513.706667 654.933333c-17.066667 7.68-30.72 27.306667-22.613334 32.426667 8.533333 5.546667 21.76 4.266667 30.72-2.133333 6.826667-5.12 6.826667-5.973333 0.426667-8.533334-10.24-3.84-17.92-2.56-8.106667 1.706667 8.106667 3.413333 8.106667 3.84-0.853333 3.84-5.973333 0.426667-9.813333-2.133333-9.813333-5.546667 0-8.533333 8.106667-13.226667 13.653333-7.68 2.56 2.56 7.253333 3.413333 10.24 2.133334 3.413333-1.28 7.253333 1.28 8.533333 5.12 2.133333 5.12-1.28 11.093333-10.24 19.626666-13.226667 12.373333-20.906667 16.213333-15.36 7.68 1.706667-2.986667-0.426667-4.266667-5.12-2.986666-16.213333 2.986667-8.96 14.08 9.813334 15.36 14.933333 1.28 19.626667-0.426667 27.306666-9.386667 5.546667-6.4 11.946667-11.093333 14.506667-11.093333 2.986667 0 8.533333-4.266667 13.226667-9.386667 4.266667-5.12 5.546667-7.68 2.986666-5.973333-7.253333 3.84-7.68-17.066667-0.426666-21.333334 2.986667-2.133333 3.413333-1.28 1.28 2.56-2.133333 3.84-1.706667 4.693333 1.28 2.56 7.68-4.693333 5.973333-11.093333-2.986667-11.093333-4.266667 0-11.093333 5.12-15.36 11.093333-5.546667 8.96-8.106667 10.24-11.093333 5.546667-2.133333-3.413333-1.28-6.826667 1.706666-8.96 3.84-2.56 3.84-3.413333 0-3.413333-2.56 0-5.973333 1.706667-7.68 4.266666-2.986667 4.693333-14.933333 0.853333-14.933333-5.12 0-2.56 3.413333-1.706667 7.68 1.28 6.4 5.546667 6.826667 5.12 1.28-1.706666-2.986667-3.84-5.973333-7.253333-6.4-6.826667 0 0-6.4 2.986667-13.653333 5.973333z m28.16 46.933334c-2.986667 3.84-6.4 5.546667-7.253334 4.693333-2.986667-2.986667 2.986667-11.093333 8.106667-11.093333 2.56 0 2.56 2.56-0.853333 6.4zM315.733333 689.066667c8.106667 8.106667 15.36 14.933333 16.64 14.933333 1.28 0-4.266667-6.826667-12.373333-14.933333s-15.36-14.933333-16.64-14.933334c-1.28 0 4.266667 6.826667 12.373333 14.933334zM385.706667 689.066667c-7.68 5.973333-7.68 5.973333 3.84 6.4 7.253333 0 11.52-2.133333 11.52-6.4 0-8.106667-4.693333-8.106667-15.36 0z" p-id="4425"></path><path d="M471.04 692.906667c-7.253333 5.546667-7.68 6.4-0.853333 8.96 3.84 1.706667 10.24 1.28 14.08-0.853334 5.973333-3.413333 5.973333-4.693333 0.853333-8.96-4.266667-3.84-7.68-3.413333-14.08 0.853334zM785.493333 690.773333c-5.12 3.413333-5.12 5.546667 1.28 15.36 5.12 7.68 6.826667 15.786667 5.12 24.32-1.706667 8.96-0.853333 11.946667 2.986667 11.093334 7.253333-2.56 17.493333-25.173333 12.8-28.586667-2.56-1.28-6.826667-7.253333-9.813333-13.226667-5.546667-10.24-5.12-10.24 2.56-4.266666 7.68 5.973333 7.68 5.973333 2.133333-1.28-6.4-8.106667-8.533333-8.533333-17.066667-3.413334zM669.44 711.253333c-3.413333 3.84-20.906667 17.92-38.826667 31.573334-17.92 13.226667-32 25.173333-31.146666 26.026666 0.853333 0.853333-6.4 0.853333-15.786667 0-11.946667-1.28-16.64-0.426667-14.506667 2.986667 1.706667 2.56 5.973333 4.693333 9.386667 4.693333 7.68 0 5.973333 9.386667-2.56 11.946667-2.986667 1.28-4.266667 0-2.56-2.986667 2.133333-2.986667-0.426667-4.693333-5.973333-4.693333-12.373333 0-26.453333 8.106667-23.466667 13.226667 1.706667 2.133333-0.426667 3.84-3.84 3.84-3.84 0-6.826667 2.133333-6.826667 5.12 0 2.56 1.28 3.84 2.56 2.56 1.28-1.28 12.8 0.426667 26.026667 3.84 12.8 3.413333 24.746667 5.12 26.026667 3.84 0.853333-1.28-1.28-3.413333-5.12-4.693334-19.626667-5.973333-21.76-7.253333-16.213334-9.386666 7.68-2.986667 43.52 14.506667 46.506667 23.04 1.706667 3.84-0.426667 12.373333-3.84 18.773333-5.12 8.533333-5.546667 12.373333-2.133333 13.653333 6.826667 2.56-22.186667 32.853333-31.573334 32.853334-4.266667 0-8.106667 2.133333-8.96 5.12-1.28 3.413333-3.84 3.413333-10.24 0-8.106667-4.693333-8.106667-4.693333 0.426667-5.546667 5.973333 0 5.12-1.28-4.266667-4.266667-13.653333-3.84-30.293333-1.28-34.986666 5.973334-1.706667 2.56 1.706667 3.413333 9.386666 1.28 10.24-2.56 11.52-2.133333 9.386667 5.546666-1.706667 7.253333 0 8.96 8.533333 8.96 5.546667 0 14.08-2.133333 18.773334-4.266666 4.693333-2.56 10.24-3.413333 12.8-1.706667 2.986667 1.706667-1.28 5.546667-9.386667 9.386667-8.533333 3.413333-12.373333 6.826667-8.96 8.106666 8.96 3.413333 52.053333-14.506667 74.24-30.72 18.773333-13.653333 37.546667-41.386667 37.546667-54.186666 0-2.986667-3.84 2.133333-8.106667 11.52-4.266667 9.386667-12.373333 20.906667-17.92 25.6l-10.24 8.533333 6.826667-8.533333c12.8-15.36 21.333333-36.693333 18.773333-45.226667-2.133333-5.546667 0.426667-11.093333 7.253333-16.64 5.546667-4.693333 8.106667-8.106667 5.973334-8.533333-2.133333 0-1.28-2.986667 1.706666-6.4 3.84-4.693333 4.266667-8.106667 0.853334-11.52-2.986667-2.986667-6.4-0.426667-11.52 9.813333-4.266667 8.106667-11.52 19.2-16.64 24.746667-7.253333 8.533333-7.68 9.813333-1.706667 7.68 5.546667-2.133333 4.266667 2.56-5.546667 18.346666-16.64 27.306667-26.453333 33.706667-11.093333 7.253334 6.826667-11.52 9.813333-20.48 7.253333-22.186667-5.973333-3.413333-5.546667-17.92 0.853334-21.76 3.413333-2.133333 3.84-0.853333 1.706666 4.693333-2.133333 6.4-1.706667 6.826667 3.413334 2.56 5.546667-4.693333 5.12-6.4-2.133334-13.653333-8.533333-8.533333-9.386667-23.893333-1.28-22.186667 2.56 0.426667 4.693333-1.706667 4.693334-5.12 0-4.266667-2.133333-4.693333-7.68-1.706666-11.52 5.973333-17.493333 18.346667-11.52 24.32 7.68 7.68-0.426667 11.946667-10.666667 5.546666-8.96-5.546667-8.96-5.546667-2.986667 1.706667 5.973333 7.253333 5.973333 7.68-3.413333 2.56-5.546667-2.986667-10.666667-7.68-11.946667-10.666667-2.56-6.826667 19.2-32.426667 28.16-32.426666 3.84 0 19.2-12.373333 34.133334-27.733334s25.173333-27.733333 22.613333-27.733333c-2.56 0-7.253333 3.413333-10.24 7.253333zM610.133333 878.506667c0 2.133333-2.986667 5.973333-6.4 8.96-3.413333 2.986667-5.546667 6.826667-4.266666 8.533333 1.28 2.133333-1.706667 2.56-6.4 1.28-10.666667-2.986667-10.666667-4.693333 1.28-14.506667 10.24-8.533333 15.786667-10.24 15.786666-4.266666z m17.066667 4.693333c0 1.706667-2.56 4.266667-5.973333 5.546667-4.266667 1.706667-5.12 0-3.84-5.973334 2.133333-7.68 9.813333-7.68 9.813333 0.426667zM518.4 729.173333c-4.266667 7.253333 4.266667 8.533333 14.933333 2.133334l10.666667-5.546667-11.52-0.426667c-6.4 0-12.373333 1.706667-14.08 3.84z" p-id="4426"></path><path d="M770.133333 747.093333c-1.706667 2.133333-7.68 5.973333-13.226666 8.106667s-9.813333 6.4-9.386667 9.386667c0.853333 2.56-5.546667 6.826667-13.653333 9.386666-8.533333 2.56-19.2 8.533333-24.32 13.226667-4.693333 4.693333-16.64 13.226667-26.453334 19.2-9.813333 5.546667-15.786667 11.093333-13.653333 11.946667 2.56 0.853333 10.666667-3.413333 18.346667-8.96 7.68-5.973333 30.293333-16.213333 49.92-23.04 20.053333-6.4 32.853333-12.373333 29.013333-13.226667-8.96-1.706667-9.813333-13.653333-0.853333-13.653333 3.413333 0 6.4 1.706667 6.4 4.266666 0 8.106667 7.68 4.266667 15.36-7.68 7.253333-11.093333 7.253333-11.52-0.426667-5.12-7.253333 5.973333-7.68 5.546667-5.12-1.28 2.986667-8.106667-7.253333-10.666667-11.946667-2.56zM360.96 762.453333c-2.56 5.973333-2.133333 6.4 2.133333 2.56 2.986667-2.986667 4.266667-6.4 2.986667-7.68-1.28-1.28-3.84 0.853333-5.12 5.12zM380.586667 761.6c-13.226667 7.253333-23.893333 17.92-11.52 11.52 8.533333-4.266667 11.52-5.12 18.346666-5.12 2.133333 0 3.84-2.986667 3.84-6.4s-0.426667-6.4-0.426666-5.973333c-0.426667 0.426667-5.12 2.986667-10.24 5.973333zM686.933333 776.96c0 2.133333 2.133333 2.986667 4.266667 1.706667 2.56-1.28 4.266667-3.413333 4.266667-4.693334 0-0.853333-1.706667-1.706667-4.266667-1.706666-2.133333 0-4.266667 2.133333-4.266667 4.693333zM136.533333 778.24c0 0.853333 3.413333 4.266667 7.68 7.253333 6.4 5.546667 6.826667 5.12 1.28-1.706666s-8.96-8.96-8.96-5.546667zM693.76 783.786667c-8.106667 2.133333-23.04 14.08-17.493333 14.08 4.266667 0 27.733333-12.8 27.733333-14.933334 0-1.28-0.426667-1.706667-0.853333-1.706666-0.853333 0.426667-5.12 1.706667-9.386667 2.56zM157.866667 804.266667c5.546667 5.973333 11.093333 10.666667 11.946666 10.666666 1.28 0-2.133333-4.693333-7.68-10.666666s-11.093333-10.666667-11.946666-10.666667c-1.28 0 2.133333 4.693333 7.68 10.666667zM217.6 864c5.546667 5.973333 11.093333 10.666667 11.946667 10.666667 1.28 0-2.133333-4.693333-7.68-10.666667s-11.093333-10.666667-11.946667-10.666667c-1.28 0 2.133333 4.693333 7.68 10.666667zM234.666667 876.373333c0 0.853333 3.413333 4.266667 7.68 7.253334 6.4 5.546667 6.826667 5.12 1.28-1.706667s-8.96-8.96-8.96-5.546667zM285.866667 910.933333c0 2.986667 43.093333 24.32 45.226666 22.613334 0.853333-0.853333-8.96-6.826667-21.76-13.226667-12.8-6.4-23.466667-10.666667-23.466666-9.386667zM369.066667 949.333333c7.253333 3.413333 15.786667 5.973333 19.2 5.973334 3.413333 0-0.426667-2.986667-8.533334-5.973334-19.626667-7.68-27.306667-7.253333-10.666666 0zM400.213333 958.72c2.986667 1.28 6.826667 0.853333 8.106667-0.426667 1.706667-1.28-0.853333-2.56-5.546667-2.133333-4.693333 0-5.973333 1.28-2.56 2.56z" p-id="4427"></path></svg>