<?xml version="1.0" standalone="no"?><!DOCTYPE svg PUBLIC "-//W3C//DTD SVG 1.1//EN" "http://www.w3.org/Graphics/SVG/1.1/DTD/svg11.dtd"><svg t="1720407052040" class="icon" viewBox="0 0 1024 1024" version="1.1" xmlns="http://www.w3.org/2000/svg" p-id="17446" xmlns:xlink="http://www.w3.org/1999/xlink" width="200" height="200"><path d="M512.1 255.9c70.5 0 127.9-57.4 127.9-127.9S582.6 0.1 512.1 0.1 384.2 57.5 384.2 128s57.3 127.9 127.9 127.9z m0-191.8c35.2 0 63.9 28.7 63.9 63.9s-28.7 63.9-63.9 63.9-63.9-28.7-63.9-63.9 28.6-63.9 63.9-63.9zM512.1 767.7c-70.5 0-127.9 57.4-127.9 127.9s57.4 127.9 127.9 127.9S640 966.2 640 895.6c0-70.5-57.4-127.9-127.9-127.9z m0 191.8c-35.2 0-63.9-28.7-63.9-63.9s28.7-63.9 63.9-63.9 63.9 28.7 63.9 63.9c0 35.3-28.7 63.9-63.9 63.9zM131 767.7c-70.5 0-127.9 57.4-127.9 127.9s57.4 127.9 127.9 127.9 127.9-57.4 127.9-127.9S201.5 767.7 131 767.7z m0 191.8c-35.2 0-63.9-28.7-63.9-63.9s28.7-63.9 63.9-63.9 63.9 28.7 63.9 63.9c0 35.3-28.6 63.9-63.9 63.9zM896.1 767.7c-70.5 0-127.9 57.4-127.9 127.9s57.4 127.9 127.9 127.9S1024 966.1 1024 895.6s-57.4-127.9-127.9-127.9z m0 191.8c-35.2 0-63.9-28.7-63.9-63.9s28.7-63.9 63.9-63.9 63.9 28.7 63.9 63.9c0 35.3-28.6 63.9-63.9 63.9zM131 702.9c17.7 0 32-14.3 32-32V542.1h316.3V671c0 17.7 14.3 32 32 32s32-14.3 32-32V542.1h323.3v129.1c0 17.7 14.3 32 32 32s32-14.3 32-32V510.1c0-17.7-14.3-32-32-32H543.3V351c0-17.7-14.3-32-32-32s-32 14.3-32 32v127.1H131c-17.7 0-32 14.3-32 32v160.8c0 17.7 14.4 32 32 32z" p-id="17447" fill="#2aa515"></path></svg>