<?xml version="1.0" standalone="no"?><!DOCTYPE svg PUBLIC "-//W3C//DTD SVG 1.1//EN" "http://www.w3.org/Graphics/SVG/1.1/DTD/svg11.dtd"><svg t="1731641369189" class="icon" viewBox="0 0 1024 1024" version="1.1" xmlns="http://www.w3.org/2000/svg" p-id="15910" xmlns:xlink="http://www.w3.org/1999/xlink" width="200" height="200"><path d="M80 313.6h288v-126.4H116.8C96 188.8 80 204.8 80 224v89.6z" fill="#E6E6E6" p-id="15911"></path><path d="M656 188.8H368v126.4h288v-126.4z" fill="#B3B3B3" p-id="15912"></path><path d="M944 313.6H656v-126.4h252.8c19.2 0 36.8 16 36.8 36.8v89.6z" fill="#666666" p-id="15913"></path><path d="M908.8 836.8H116.8C96 836.8 80 819.2 80 800V296h864V800c0 19.2-16 36.8-35.2 36.8z" fill="#333333" p-id="15914"></path><path d="M353.6 516.8l-158.4 158.4c-9.6 9.6-9.6 20.8 0 28.8l32 32c9.6 9.6 22.4 9.6 28.8 0l158.4-158.4c9.6-9.6 9.6-22.4 0-28.8l-32-32c-6.4-6.4-20.8-6.4-28.8 0z" fill="#999999" p-id="15915"></path><path d="M256 392l158.4 158.4c9.6 9.6 9.6 20.8 0 28.8l-32 32c-9.6 9.6-22.4 9.6-28.8 0l-158.4-158.4c-9.6-9.6-9.6-22.4 0-28.8l32-32c8-8 22.4-8 28.8 0z" fill="#CCCCCC" p-id="15916"></path><path d="M256 392l158.4 158.4c9.6 9.6 9.6 20.8 0 28.8l-32 32c-9.6 9.6-22.4 9.6-28.8 0l-158.4-158.4c-9.6-9.6-9.6-22.4 0-28.8l32-32c8-8 22.4-8 28.8 0z" fill="#CCCCCC" p-id="15917"></path><path d="M534.4 742.4h-60.8c-11.2 0-19.2-8-19.2-19.2v-38.4c0-11.2 8-19.2 19.2-19.2h60.8c11.2 0 19.2 8 19.2 19.2v38.4c0 11.2-9.6 19.2-19.2 19.2z" fill="#E6E6E6" p-id="15918"></path><path d="M696 742.4h-60.8c-11.2 0-19.2-8-19.2-19.2v-38.4c0-11.2 8-19.2 19.2-19.2h60.8c11.2 0 19.2 8 19.2 19.2v38.4c0 11.2-9.6 19.2-19.2 19.2z" fill="#B3B3B3" p-id="15919"></path><path d="M857.6 742.4h-60.8c-11.2 0-19.2-8-19.2-19.2v-38.4c0-11.2 8-19.2 19.2-19.2h60.8c11.2 0 19.2 8 19.2 19.2v38.4c0 11.2-8 19.2-19.2 19.2z" fill="#666666" p-id="15920"></path></svg>